<?xml version="1.0"?>
<svg xmlns="http://www.w3.org/2000/svg" xmlns:xlink="http://www.w3.org/1999/xlink" xmlns:svgjs="http://svgjs.com/svgjs" version="1.1" width="512" height="512" x="0" y="0" viewBox="0 0 128 128" style="enable-background:new 0 0 512 512" xml:space="preserve" class=""><g><path xmlns="http://www.w3.org/2000/svg" d="m30.317 6.5h82.337v97.308h-82.337z" fill="#dcc44f" data-original="#c7cfd4" style="" class=""/><path xmlns="http://www.w3.org/2000/svg" d="m15.346 24.192h82.337v97.308h-82.337z" fill="#f7e380" data-original="#e1ebf0" style="" class=""/><g xmlns="http://www.w3.org/2000/svg" fill="#694b4b"><path d="m85.265 38.6h-21.265a1.75 1.75 0 0 1 0-3.5h21.265a1.75 1.75 0 0 1 0 3.5z" fill="#dcc44f" data-original="#694b4b" style="" class=""/><path d="m85.265 56.6h-57.5a1.75 1.75 0 1 1 0-3.5h57.5a1.75 1.75 0 0 1 0 3.5z" fill="#dcc44f" data-original="#694b4b" style="" class=""/><path d="m85.265 65.6h-57.5a1.75 1.75 0 1 1 0-3.5h57.5a1.75 1.75 0 0 1 0 3.5z" fill="#dcc44f" data-original="#694b4b" style="" class=""/><path d="m85.265 74.6h-57.5a1.75 1.75 0 0 1 0-3.5h57.5a1.75 1.75 0 0 1 0 3.5z" fill="#dcc44f" data-original="#694b4b" style="" class=""/><path d="m85.265 83.6h-57.5a1.75 1.75 0 0 1 0-3.5h57.5a1.75 1.75 0 0 1 0 3.5z" fill="#dcc44f" data-original="#694b4b" style="" class=""/><path d="m85.265 92.6h-57.5a1.75 1.75 0 0 1 0-3.5h57.5a1.75 1.75 0 0 1 0 3.5z" fill="#dcc44f" data-original="#694b4b" style="" class=""/><path d="m85.265 101.6h-57.5a1.75 1.75 0 0 1 0-3.5h57.5a1.75 1.75 0 0 1 0 3.5z" fill="#dcc44f" data-original="#694b4b" style="" class=""/><path d="m74.5 110.6h-35.97a1.75 1.75 0 0 1 0-3.5h35.97a1.75 1.75 0 0 1 0 3.5z" fill="#dcc44f" data-original="#694b4b" style="" class=""/></g></g></svg>
